<svg data-v-fde0c5aa="" xmlns="http://www.w3.org/2000/svg" viewBox="0 0 300 300" class="iconAbove"><!----><defs data-v-fde0c5aa=""><!----></defs><rect data-v-fde0c5aa="" fill="transparent" x="0" y="0" width="300px" height="300px" class="logo-background-square"></rect><defs data-v-fde0c5aa=""><linearGradient data-v-fde0c5aa="" gradientTransform="rotate(25)" id="dec2ada0-b735-4684-83f0-88d3b7b7f5ac" x1="0%" y1="0%" x2="100%" y2="0%"><stop data-v-fde0c5aa="" offset="0%" stop-color="#FFC500" stop-opacity="1"></stop><stop data-v-fde0c5aa="" offset="100%" stop-color="#AAAAAA" stop-opacity="1"></stop></linearGradient></defs><g data-v-fde0c5aa="" id="201adaa2-f425-449c-a462-3f8fd7948ba6" fill="url(#dec2ada0-b735-4684-83f0-88d3b7b7f5ac)" transform="matrix(3.9852848052978516,0,0,3.9852848052978516,17.48927061667114,175.73819430524918)"><path d="M6.09 10.19C6.09 10.80 5.87 11.32 5.43 11.76C4.99 12.20 4.47 12.42 3.85 12.42C3.23 12.42 2.71 12.20 2.27 11.76C1.83 11.32 1.61 10.80 1.61 10.19C1.61 9.58 1.83 9.05 2.27 8.61C2.71 8.17 3.23 7.95 3.85 7.95C4.47 7.95 4.99 8.17 5.43 8.61C5.87 9.05 6.09 9.58 6.09 10.19ZM7.07 10.19C7.07 9.31 6.75 8.55 6.13 7.92C5.50 7.29 4.74 6.97 3.85 6.97C2.96 6.97 2.21 7.29 1.57 7.92C0.95 8.55 0.63 9.31 0.63 10.19C0.63 11.08 0.95 11.84 1.57 12.46C2.21 13.09 2.97 13.40 3.85 13.40C4.73 13.40 5.49 13.09 6.13 12.46C6.75 11.84 7.07 11.08 7.07 10.19ZM13.01 13.30L13.99 13.30L13.99 9.45C13.99 8.74 13.80 8.16 13.43 7.72C13.24 7.50 13.01 7.33 12.74 7.20C12.47 7.08 12.11 7.01 11.68 7.01C11.24 7.01 10.85 7.13 10.51 7.36C10.20 7.57 9.94 7.85 9.73 8.20L9.73 7.14L8.75 7.14L8.75 13.30L9.73 13.30L9.73 10.72C9.73 9.94 9.88 9.32 10.17 8.86C10.33 8.60 10.55 8.39 10.81 8.23C11.07 8.07 11.41 7.99 11.83 7.99C12.25 7.99 12.55 8.14 12.73 8.42C12.91 8.71 13.01 9.05 13.01 9.45ZM21.90 10.08C21.90 9.23 21.57 8.50 20.92 7.88C20.29 7.28 19.54 6.97 18.68 6.97C17.79 6.97 17.03 7.29 16.40 7.92C15.77 8.55 15.46 9.31 15.46 10.19C15.46 11.08 15.77 11.84 16.40 12.46C16.70 12.75 17.04 12.98 17.42 13.15C17.81 13.31 18.28 13.40 18.82 13.40C19.37 13.40 19.91 13.23 20.43 12.89C20.96 12.55 21.35 12.08 21.62 11.49L20.50 11.49C20.28 11.78 20.01 12.01 19.69 12.17C19.37 12.34 19.03 12.42 18.68 12.42C18.15 12.42 17.67 12.25 17.25 11.90C16.83 11.56 16.57 11.13 16.48 10.60L21.90 10.60ZM20.86 9.76L16.49 9.76C16.55 9.50 16.65 9.26 16.79 9.04C17.25 8.31 17.88 7.95 18.68 7.95C19.20 7.95 19.66 8.12 20.07 8.46C20.48 8.80 20.75 9.23 20.86 9.76ZM28.41 10.22C28.41 10.82 28.20 11.34 27.78 11.79C27.37 12.24 26.85 12.46 26.24 12.46C25.62 12.46 25.11 12.24 24.69 11.79C24.27 11.34 24.07 10.82 24.07 10.22C24.07 9.62 24.27 9.10 24.69 8.65C25.11 8.20 25.62 7.98 26.24 7.98C26.85 7.98 27.37 8.20 27.78 8.65C28.20 9.10 28.41 9.62 28.41 10.22ZM29.39 13.30L29.39 2.80L28.41 2.80L28.41 8.19C28.35 8.12 28.29 8.05 28.23 7.98C27.65 7.33 26.93 7.00 26.08 7.00C25.23 7.00 24.51 7.33 23.93 7.98C23.37 8.61 23.09 9.36 23.09 10.22C23.09 11.08 23.37 11.83 23.93 12.46C24.51 13.11 25.23 13.44 26.08 13.44C26.93 13.44 27.65 13.11 28.23 12.46C28.29 12.39 28.35 12.32 28.41 12.25L28.41 13.30ZM36.39 10.22C36.39 10.82 36.18 11.34 35.76 11.79C35.35 12.24 34.83 12.46 34.22 12.46C33.60 12.46 33.09 12.24 32.67 11.79C32.25 11.34 32.05 10.82 32.05 10.22C32.05 9.62 32.25 9.10 32.67 8.65C33.09 8.20 33.60 7.98 34.22 7.98C34.83 7.98 35.35 8.20 35.76 8.65C36.18 9.10 36.39 9.62 36.39 10.22ZM37.37 13.30L37.37 7.14L36.39 7.14L36.39 8.19C36.33 8.12 36.27 8.05 36.21 7.98C35.63 7.33 34.91 7.00 34.06 7.00C33.21 7.00 32.49 7.33 31.91 7.98C31.35 8.61 31.07 9.36 31.07 10.22C31.07 11.08 31.35 11.83 31.91 12.46C32.49 13.11 33.21 13.44 34.06 13.44C34.91 13.44 35.63 13.11 36.21 12.46C36.27 12.39 36.33 12.32 36.39 12.25L36.39 13.30ZM40.25 16.80L44.51 7.14L43.41 7.14L41.65 11.27L39.68 7.14L38.56 7.14L41.13 12.29L39.06 16.80ZM46.23 13.44C46.44 13.44 46.63 13.36 46.80 13.21C46.97 13.06 47.05 12.87 47.05 12.65C47.05 12.43 46.97 12.24 46.81 12.09C46.65 11.94 46.45 11.86 46.23 11.86C46.00 11.86 45.81 11.94 45.65 12.10C45.50 12.25 45.42 12.44 45.42 12.66C45.42 12.87 45.50 13.06 45.66 13.21C45.82 13.36 46.01 13.44 46.23 13.44ZM52.32 8.41L52.32 7.14C52.12 7.06 51.92 7.01 51.70 7.01C51.01 7.01 50.50 7.40 50.18 8.16L50.13 8.41L50.13 7.14L49.15 7.14L49.15 13.30L50.13 13.30L50.13 10.22C50.13 9.71 50.25 9.26 50.48 8.86C50.61 8.64 50.76 8.47 50.94 8.32C51.12 8.18 51.34 8.11 51.60 8.11C51.85 8.11 52.09 8.21 52.32 8.41ZM57.76 12.24L57.76 13.30L58.74 13.30L58.74 7.14L57.76 7.14L57.76 9.72C57.76 10.57 57.60 11.24 57.29 11.72C56.97 12.21 56.43 12.45 55.66 12.45C55.24 12.45 54.94 12.30 54.76 12.02C54.58 11.73 54.49 11.39 54.49 10.99L54.49 7.14L53.51 7.14L53.51 10.99C53.51 11.70 53.70 12.29 54.09 12.74C54.48 13.20 55.02 13.43 55.71 13.43C56.62 13.43 57.30 13.03 57.76 12.24ZM64.89 13.30L65.87 13.30L65.87 9.45C65.87 8.74 65.68 8.16 65.31 7.72C65.12 7.50 64.89 7.33 64.62 7.20C64.35 7.08 64.00 7.01 63.56 7.01C63.12 7.01 62.73 7.13 62.40 7.36C62.08 7.57 61.82 7.85 61.61 8.20L61.61 7.14L60.63 7.14L60.63 13.30L61.61 13.30L61.61 10.72C61.61 9.94 61.76 9.32 62.05 8.86C62.22 8.60 62.43 8.39 62.69 8.23C62.95 8.07 63.29 7.99 63.71 7.99C64.13 7.99 64.44 8.14 64.62 8.42C64.80 8.71 64.89 9.05 64.89 9.45Z"></path></g><defs data-v-fde0c5aa=""><linearGradient data-v-fde0c5aa="" gradientTransform="rotate(25)" id="21516c2d-3fba-4eb1-8a5e-1224c0cceb8f" x1="0%" y1="0%" x2="100%" y2="0%"><stop data-v-fde0c5aa="" offset="0%" stop-color="#FFC500" stop-opacity="1"></stop><stop data-v-fde0c5aa="" offset="100%" stop-color="#AAAAAA" stop-opacity="1"></stop></linearGradient></defs><g data-v-fde0c5aa="" id="f8976990-ba97-474c-a98c-805e4dccd5f3" stroke="none" fill="url(#21516c2d-3fba-4eb1-8a5e-1224c0cceb8f)" transform="matrix(1.2398662567138672,0,0,1.2398662567138672,88.0066797347133,51.109694187941884)"><path d="M56.493 42.473c-2.492-1.392-5.109-1.882-7.853-2.285-6.106-.898-10.728 2.126-12.237 8.179-.249.999-.55 1.985-.801 2.884.297.937.482 1.794.831 2.577 1.587 3.56 3.625 6.612 7.78 7.669 1.463.372 2.767 1.369 4.267 2.144 1.446-.251 3.022-.354 4.484-.817 2.261-.716 4.787-1.109 6.361-3.118 5.099-6.507 1.703-14.699-2.832-17.233zm-7.908 17.346c-3.953-.177-6.575-2.073-8.273-5.279-1.74-3.285-.853-6.306 1.801-9.806l4.26-1.227c.393.553.896.944.951 1.39.603 4.896 1.6 9.769 1.261 14.922zM48.108 76.483c-.424 5.309-.716 10.63-.965 15.95-.036.76.44 1.544.755 2.567l2.711-1.818 1.319-21.381-2.651-.01c-.445 1.731-1.049 3.192-1.169 4.692zM86.638 73.762a450.179 450.179 0 0 0-11.64-7.602c-.689-.435-1.621-.594-2.458-.656-.925-.069-1.628.365-1.518 1.877 5.712 3.33 11.326 7.201 16.264 11.913l1.577-.749.148-2.401c-.917-.937-1.538-1.818-2.373-2.382zM51.613 25.326c1.694-3.049 1.689-3.046 1.532-5.026-.364-4.587-.687-9.177-1.056-13.763-.025-.309-.291-.599-.564-1.129-.456-.106-1.076-.248-1.773-.408l-.933 1.431.694 17.998 2.1.897zM25.365 64.17c-4.883 2.823-9.867 5.505-14.184 9.198-.18.154-.104.605-.192 1.24l2.985.513c4.49-3.571 8.888-6.54 13.778-8.747.765-.345 1.445-.902 2.111-1.429.216-.171.261-.56.384-.849l-.855-1.379c-1.501.527-2.88.79-4.027 1.453zM15.702 25.996l-1.24 1.556c4.411 2.884 8.681 5.698 12.982 8.464.559.36 1.265.518 1.924.686.311.079.674-.041 1.6-.122l-.465-3.288c-5.038-2.415-9.638-5.4-14.801-7.296zM74.712 36.665c3.487-2.518 6.865-5.228 11.105-6.479.373-.11.601-.709.868-1.045-.238-.408-.355-.767-.599-.981-.239-.21-.607-.271-1.266-.539-5.532 1.921-10.328 5.532-15.04 9.275-.187.149-.167.559-.242.838.153.12.272.276.425.324.824.259 1.656.492 2.46.727.774-.726 1.46-1.522 2.289-2.12z"></path></g><!----></svg>